<svg width="286" height="140" viewBox="0 0 286 140" fill="none" xmlns="http://www.w3.org/2000/svg">
<path d="M286 70H0V140H286V70Z" fill="#E2E42B"/>
<path d="M286 0H0V70H286V0Z" fill="#00503C"/>
<path d="M37.2372 97.5263H39.0205L42.3711 105.393L45.8766 97.5263H47.6599L49.7809 109.903H47.2797L46.1441 102.276L42.7513 109.903H41.9206L38.6826 102.276L37.3922 109.903H34.8909L37.2372 97.5263Z" fill="black"/>
<path d="M54.8531 97.5263V109.903H52.3895V97.5263H54.8531Z" fill="black"/>
<path d="M60.5742 97.526V105.765L67.5053 97.526H69.2464V109.903H66.7827V101.627L59.8514 109.903H58.1104V97.526H60.5742ZM61.9773 93.572C62.3761 94.6111 63.4367 94.6478 63.6854 94.6478C63.9294 94.6478 64.9901 94.6111 65.3889 93.572L67.0923 94.2386C66.5996 95.4985 65.4264 96.3168 63.6854 96.3168C61.9445 96.3168 60.7666 95.4985 60.2739 94.2386L61.9773 93.572Z" fill="black"/>
<path d="M77.2999 97.5263H84.6112V99.6045H79.7637V102.446H81.4671C82.4151 102.446 83.6446 102.593 84.63 103.448C85.3527 104.078 85.8219 105.025 85.8219 106.193C85.8219 107.03 85.5592 107.788 85.1228 108.4C84.1561 109.738 82.5841 109.903 81.4859 109.903H77.2999V97.5263ZM79.7637 107.825H80.9416C82.9125 107.825 83.2879 106.915 83.2879 106.211C83.2879 105.43 82.8514 104.524 80.9744 104.524H79.7637V107.825Z" fill="black"/>
<path d="M95.5596 107.306H90.4632L89.3464 109.903H86.6762L92.115 97.5263H94.0485L99.3325 109.903H96.6811L95.5596 107.306ZM94.8415 105.338L93.0442 100.883L91.2423 105.338H94.8415Z" fill="black"/>
<path d="M103.65 102.313H108.99V97.5218H111.454V109.899H108.99V104.386H103.65V109.899H101.186V97.5218H103.65V102.313Z" fill="black"/>
<path d="M117.174 102.758L121.815 97.5263H124.922L119.582 103.241L125.208 109.903H121.951L117.461 104.354L117.174 104.634V109.903H114.711V97.5263H117.174V102.758Z" fill="black"/>
<path d="M128.085 107.251C128.92 107.251 129.563 107.88 129.563 108.699C129.563 109.517 128.92 110.147 128.085 110.147C127.249 110.147 126.606 109.517 126.606 108.699C126.606 107.88 127.249 107.251 128.085 107.251Z" fill="black"/>
<path d="M138.783 97.5263H140.562L143.912 105.393L147.418 97.5263H149.201L151.322 109.903H148.821L147.685 102.276L144.292 109.903H143.462L140.224 102.276L138.933 109.903H136.432L138.783 97.5263Z" fill="black"/>
<path d="M166.817 103.724C166.817 107.49 164.054 110.184 160.075 110.184C156.095 110.184 153.331 107.494 153.331 103.724C153.331 99.9541 156.095 97.2461 160.075 97.2461C164.054 97.2461 166.817 99.9541 166.817 103.724ZM164.279 103.724C164.279 101.218 162.538 99.4346 160.075 99.4346C157.611 99.4346 155.87 101.218 155.87 103.724C155.87 106.23 157.611 107.991 160.075 107.991C162.538 107.991 164.279 106.23 164.279 103.724Z" fill="black"/>
<path d="M177.354 109.903H174.891V105.113H174.435L171.216 109.903H168.26L172.009 104.892C171.535 104.818 171.023 104.611 170.625 104.336C169.87 103.798 169.203 102.777 169.203 101.347C169.203 99.9908 169.789 99.0437 170.456 98.4689C171.441 97.6137 172.634 97.5218 173.694 97.5218H177.35V109.903H177.354ZM174.13 99.4942C173.675 99.4942 171.746 99.5126 171.746 101.352C171.746 103.228 173.68 103.228 174.172 103.228H174.895V99.4988H174.13V99.4942Z" fill="black"/>
<path d="M187.86 102.758L192.501 97.5263H195.608L190.268 103.241L195.894 109.903H192.638L188.148 104.354L187.86 104.634V109.903H185.396V97.5263H187.86V102.758Z" fill="black"/>
<path d="M201.503 97.5263C202.923 97.5263 203.909 97.6734 204.834 98.4734C205.856 99.3654 206.119 100.57 206.119 101.462C206.119 101.945 206.044 103.283 205.078 104.225C204.378 104.91 203.337 105.319 201.877 105.319H200.287V109.903H197.823V97.5263H201.503ZM200.287 103.241H201.291C201.765 103.241 202.37 103.241 202.9 102.85C203.355 102.496 203.581 101.94 203.581 101.402C203.581 100.717 203.239 100.253 202.881 99.9906C202.37 99.6366 201.726 99.5998 201.136 99.5998H200.287V103.241Z" fill="black"/>
<path d="M214.99 107.306H209.893L208.775 109.903H206.107L211.545 97.5263H213.479L218.762 109.903H216.11L214.99 107.306ZM214.267 105.338L212.465 100.883L210.667 105.338H214.267Z" fill="black"/>
<path d="M220.386 93.5171C220.991 93.5171 221.484 94.1471 221.484 94.8551C221.484 95.5631 220.991 96.1929 220.386 96.1929C219.78 96.1929 219.287 95.5631 219.287 94.8551C219.287 94.1471 219.78 93.5171 220.386 93.5171ZM223.074 97.5263V109.903H220.61V97.5263H223.074ZM223.229 93.5171C223.835 93.5171 224.328 94.1471 224.328 94.8551C224.328 95.5631 223.835 96.1929 223.229 96.1929C222.625 96.1929 222.132 95.5631 222.132 94.8551C222.132 94.1471 222.62 93.5171 223.229 93.5171Z" fill="black"/>
<path d="M228.795 102.313H234.141V97.5218H236.604V109.899H234.141V104.386H228.795V109.899H226.336V97.5218H228.795V102.313Z" fill="black"/>
<path d="M247.34 107.306H242.245L241.128 109.903H238.457L243.896 97.5263H245.825L251.11 109.903H248.458L247.34 107.306ZM246.617 105.338L244.821 100.883L243.019 105.338H246.617Z" fill="black"/>
<path d="M46.576 22.7082C38.5889 22.7082 34.6798 28.1977 34.6798 34.9655C34.6798 41.7334 38.5889 47.2231 46.576 47.2231C54.563 47.2231 58.4721 41.7334 58.4721 34.9655C58.4721 28.1977 54.563 22.7082 46.576 22.7082ZM46.576 45.8668C41.8176 45.8668 39.7716 40.8322 39.7716 34.9702C39.7716 29.1082 41.7425 24.1334 46.501 24.1334C51.2594 24.1334 53.3852 29.1082 53.3852 34.9702C53.3852 40.8322 51.3392 45.8668 46.576 45.8668Z" fill="white"/>
<path d="M93.0476 45.0163V23.3106L88.383 23.3197L88.3595 45.0163H81.2829V23.3197H76.5854L76.5807 44.9932H69.382V26.3405C69.382 24.8186 68.1103 23.3197 66.5429 23.3197H62.5822V24.3266C63.6288 24.3266 64.6752 25.3335 64.6752 26.3451V46.6623H93.1508V52.6623H95.2439L96.5062 45.0163H93.0476Z" fill="white"/>
<path d="M121.317 44.6666C119.712 42.4872 112.298 23.3332 112.298 23.3332L112.303 23.324H109.989L99.0502 46.662H101.622L104.348 40.7126H114.395L116.296 44.8183C116.831 45.9402 117.587 46.6758 119.497 46.6758H122.336V45.4252C122.143 45.4252 121.599 45.0482 121.317 44.6666ZM105.099 39.0666L109.825 28.2252L113.72 39.0666H105.099Z" fill="white"/>
<path d="M197.007 44.6666C195.402 42.4872 187.987 23.3332 187.987 23.3332L187.992 23.324H185.678L174.74 46.662H177.311L180.039 40.7126H190.084L191.985 44.8183C192.52 45.9402 193.275 46.6758 195.186 46.6758H198.025V45.4252C197.837 45.4252 197.289 45.0482 197.007 44.6666ZM180.789 39.0666L185.515 28.2252L189.41 39.0666H180.789Z" fill="white"/>
<path d="M148.93 45.1768C148.207 45.1768 147.179 44.2112 146.536 42.9102C144.195 38.1608 138.526 23.324 138.526 23.324H138.521L136.193 23.2917L126.038 45.0205H124.621L125.865 52.6665H127.958V46.6665H145.584V52.6665H147.677L148.93 45.1768ZM136.076 28.4549L136.151 28.4505L141.449 42.7354C142.027 44.0872 142.73 44.8274 143.655 45.1768H128.596L136.076 28.4549Z" fill="white"/>
<path d="M162.77 34.2115H157.64V24.9657H167.054L167.058 30.9058H169.001L170.47 23.3243L150.835 23.3151V24.3403C151.882 24.3403 152.928 25.3472 152.928 26.3588V46.6714L162.77 46.6622C169.536 46.6622 171.188 43.1311 171.188 40.2208C171.188 37.1035 169.536 34.2115 162.77 34.2115ZM161.84 45.1403H157.64V35.8575H161.882C165.519 35.8575 166.542 38.0829 166.542 40.1058C166.542 41.9817 165.473 45.1403 161.84 45.1403Z" fill="white"/>
<path d="M217.335 23.3195V34.2115H208.18V26.3632C208.18 24.8414 206.595 23.3195 205.026 23.3195H201.179V24.3265C202.225 24.3265 203.271 25.3334 203.271 26.3448V46.662H208.18V35.8575H217.335V46.662H222.141V23.3195H217.335Z" fill="white"/>
<path d="M248.271 43.4763C246.01 41.1958 239.753 34.3591 239.753 34.3591V34.1751L249.533 23.3062L246.436 23.3015L236.632 34.1705H235.047V26.3635C235.047 24.8417 233.461 23.32 231.893 23.32H228.374V24.3268C229.467 24.3268 230.466 25.3337 230.466 26.3452C230.466 31.4257 230.466 46.6625 230.466 46.6625H235.047V35.9958H236.404C237.506 37.3751 243.377 44.4877 243.377 44.4877C245.174 46.5198 247.281 47.0026 249.417 47.0026H251.312L251.326 45.6923C250.763 45.6923 249.599 44.8142 248.271 43.4763Z" fill="white"/>
</svg>
