<svg width="50" height="50" viewBox="0 0 50 50" fill="none" xmlns="http://www.w3.org/2000/svg">
<path fill-rule="evenodd" clip-rule="evenodd" d="M0 9.17969V18.3594H4.14389H8.28777V17.0898V15.8203H8.97507C9.62513 15.8203 9.70557 15.8463 10.462 16.3013C11.708 17.0508 12.7036 17.408 14.1151 17.612L14.9667 17.7352L14.992 23.0277L15.0172 28.3203H32.4534H49.8896L49.9543 20.7764C49.9899 16.6271 50.0087 10.2441 49.996 6.5918C49.9834 2.93945 49.9609 1.45635 49.946 3.2959L49.9191 6.64062H42.1011H34.2831L31.6452 4.02832C28.9495 1.35889 28.527 1.01787 27.2998 0.521484C26.075 0.0258789 25.6847 0 19.4481 0C15.7498 0 13.4865 0.0373047 13.1795 0.103223C12.9153 0.159961 12.0779 0.510254 11.3188 0.881543C9.90184 1.57461 9.29147 1.74229 8.6344 1.61875L8.28777 1.55361V0.776855V0H4.14389H0V9.17969ZM0.0468015 9.22852C0.0468015 14.2773 0.0585994 16.3284 0.0731274 13.7865C0.0875579 11.2446 0.0875579 7.11377 0.0731274 4.60684C0.0585994 2.0999 0.0468015 4.17969 0.0468015 9.22852ZM1.65755 9.17969V16.6992H4.14389H6.63022V9.17969V1.66016H4.14389H1.65755V9.17969ZM13.3579 1.79648C13.1702 1.8667 12.4682 2.19463 11.7979 2.5251C10.514 3.1582 9.92475 3.32031 8.90828 3.32031H8.28777V8.74023V14.1602H9.26817C10.2453 14.1602 10.2503 14.1614 10.8038 14.5374C11.9677 15.3281 13.2629 15.8423 14.422 15.9736L15.0155 16.0408V14.0309V12.0209L14.5845 11.8299C14.0257 11.5823 12.9711 10.8643 12.9023 10.6845C12.8715 10.6041 13.0481 10.3062 13.3173 9.98418C13.5751 9.67598 13.795 9.40977 13.8062 9.39268C13.8174 9.37549 14.094 9.55859 14.4208 9.79971C15.0143 10.2372 15.8637 10.5749 16.6509 10.6862C17.6709 10.8306 19.071 10.3674 20.0303 9.56836L20.5113 9.16787L23.0529 11.7033C24.4509 13.0979 25.735 14.309 25.9066 14.3947C26.5533 14.7181 27.3311 14.5339 27.8582 13.9326C28.2065 13.5354 28.33 13.0685 28.2309 12.5244C28.1731 12.2067 27.7487 11.7409 25.0283 9.0083L21.8925 5.8583L22.4999 5.2499L23.1075 4.64141L24.1089 5.64102L25.1104 6.64062L28.5213 6.63867L31.9323 6.63672L29.9335 4.65635C28.1559 2.89521 27.8524 2.63574 27.1908 2.31191C25.8851 1.67285 25.7691 1.66328 19.4031 1.66611C14.9497 1.66816 13.6244 1.69668 13.3579 1.79648ZM27.5934 9.13086L28.4179 9.96094H35.4022H42.3864L42.4373 10.7772C42.5034 11.8391 42.8405 12.6178 43.5022 13.2378C44.168 13.8615 44.7106 14.079 45.7489 14.1383L46.6065 14.1872V17.4795V20.7719L45.8414 20.831C43.7817 20.99 42.5614 22.1903 42.4375 24.1791L42.3864 25H32.4177H22.449L22.4064 24.0967C22.354 22.9809 22.0999 22.4248 21.3141 21.7055C20.6816 21.1266 20.1413 20.9146 19.0863 20.8314L18.3306 20.7719V17.466V14.1602H18.9466C19.2856 14.1602 19.7812 14.0952 20.048 14.0158C20.6232 13.8447 21.4015 13.3497 21.6197 13.016C21.7728 12.7821 21.7638 12.7664 21.0915 12.0931L20.4076 11.4081L19.8245 11.7029C19.1249 12.0566 18.3354 12.2688 17.3799 12.3601L16.673 12.4275V19.5438V26.6602H32.4686H48.2641V17.4805V8.30078H37.5165H26.7689L27.5934 9.13086ZM29.7876 11.8896C29.9643 12.3211 29.9532 13.3336 29.7656 13.887C29.6617 14.1934 29.6063 14.4258 29.6423 14.4034C29.6784 14.3812 29.9388 14.2073 30.2208 14.0172C31.8577 12.9139 34.212 13.2128 35.5782 14.6973C36.2389 15.415 36.5953 16.2836 36.6435 17.2931C36.7104 18.6951 36.3289 19.6647 35.343 20.5986C33.6734 22.1802 31.1654 22.1417 29.5313 20.5097C28.9163 19.8955 28.6358 19.4091 28.4217 18.5859C28.1751 17.6378 28.261 16.6366 28.66 15.8096C28.7608 15.6007 28.8272 15.4297 28.8077 15.4297C28.7881 15.4297 28.6148 15.5366 28.4225 15.6673C27.8299 16.0701 27.1639 16.2406 26.3864 16.1885C25.421 16.1237 24.8834 15.84 23.8647 14.8579L23.0123 14.0361L22.5723 14.4424C21.9315 15.0341 21.3398 15.3813 20.6219 15.5873L19.9882 15.769V17.4858V19.2026L20.5488 19.3784C21.2883 19.6104 21.5898 19.7673 22.219 20.2479C22.9052 20.7723 23.6092 21.7872 23.887 22.6523L24.1078 23.3398H32.4693H40.8307L40.9439 22.8893C41.356 21.2506 42.864 19.7409 44.5013 19.328L44.9534 19.214L44.9268 17.5061L44.9002 15.7981L44.364 15.6303C43.5522 15.3763 43.0195 15.0692 42.4304 14.5156C41.7488 13.8751 41.2363 13.086 41.0051 12.3212L40.8229 11.7188H35.2703C30.0204 11.7188 29.7214 11.728 29.7876 11.8896ZM31.5171 15.185C30.9828 15.4176 30.5621 15.7971 30.299 16.2838C29.735 17.3273 29.8862 18.4189 30.7088 19.243C32.2808 20.8174 34.909 19.7308 34.9052 17.508C34.9034 16.4646 34.1803 15.4278 33.2624 15.1524C32.7538 14.9998 31.9063 15.0156 31.5171 15.185ZM41.6339 34.6191C41.6339 35.4009 41.5956 35.9375 41.5398 35.9375C41.488 35.9375 41.0383 35.6892 40.5404 35.3856C40.0424 35.0821 39.3499 34.6976 39.0013 34.5312L38.3675 34.2285H35.5887H32.8098L27.6422 35.6288C24.7999 36.399 22.2936 37.1082 22.0726 37.2048C21.5383 37.4382 20.914 38.0149 20.5992 38.566C20.4585 38.8122 20.3347 39.0267 20.324 39.0425C20.3132 39.0583 18.3216 37.9963 15.8983 36.6824C13.2618 35.253 11.2941 34.2461 10.9991 34.1752C9.52187 33.8202 7.94017 34.5967 7.24264 36.0191C7.01048 36.4927 6.97148 36.692 6.97148 37.4044C6.97148 38.147 7.0058 38.3063 7.29041 38.8853C7.46572 39.2421 7.76155 39.6681 7.94778 39.8317C8.3337 40.1711 23.5515 49.3119 24.3737 49.6982L24.9121 49.9512L31.4426 49.9789C35.7785 49.9974 38.1351 49.9719 38.4551 49.9031C38.7201 49.8462 39.4911 49.5811 40.1684 49.3139C40.8458 49.0467 41.4525 48.8281 41.5169 48.8281C41.5949 48.8281 41.6339 49.0234 41.6339 49.4141V50H45.7778H49.9216V41.6504V33.3008H45.7778H41.6339V34.6191ZM43.2914 41.6504V48.3398H45.7778H48.2641V41.6504V34.9609H45.7778H43.2914V41.6504ZM9.60007 35.9204C8.56332 36.4062 8.26661 37.7029 9.00871 38.505C9.33954 38.8625 24.7346 48.0591 25.2609 48.2137C25.6216 48.3195 26.9435 48.34 31.9898 48.3182L38.27 48.291L39.9519 47.6175L41.6339 46.9438V42.4696V37.9953L39.9212 36.9714C38.7786 36.2883 38.0729 35.9272 37.8005 35.8864C37.5761 35.8528 36.4272 35.8402 35.2474 35.8585L33.1023 35.8916L27.9405 37.2884C24.8022 38.1375 22.6704 38.7623 22.5025 38.882C21.603 39.5235 21.6487 40.9542 22.5893 41.5997C23.1699 41.9981 23.5384 41.9372 28.3247 40.6509C30.7379 40.0023 32.797 39.4565 32.9004 39.438C33.0608 39.4093 33.1164 39.5164 33.278 40.1654C33.3823 40.584 33.4435 40.9506 33.4141 40.9801C33.2964 41.098 24.2865 43.4588 23.7343 43.5164C22.2982 43.6662 20.7271 42.6559 20.3599 41.3464L20.2473 40.9446L15.5288 38.3896C12.1678 36.5695 10.6928 35.8202 10.4021 35.7851C10.1208 35.7511 9.87171 35.7932 9.60007 35.9204Z" fill="#00829B"/>
</svg>
