<svg width="35" height="30" viewBox="0 0 35 30" fill="none" xmlns="http://www.w3.org/2000/svg">
<path d="M29.4579 29.3333C31.0406 29.3333 32.2304 28.9336 33.0271 28.1341C33.8239 27.3454 34.2222 26.1677 34.2222 24.6011V4.73223C34.2222 3.16562 33.8239 1.98797 33.0271 1.19926C32.2304 0.399754 31.0406 0 29.4579 0H15.6495C15.0358 0 14.4652 0.0540209 13.9376 0.162063C13.41 0.2593 12.9094 0.437569 12.4356 0.696869C11.9619 0.945365 11.5151 1.2857 11.0952 1.71786L1.40507 11.7333C1.08206 12.0683 0.812892 12.3978 0.597557 12.7219C0.392988 13.0352 0.242253 13.3486 0.145352 13.6619C0.0484505 13.9752 0 14.2939 0 14.618C0 15.1042 0.113051 15.585 0.339154 16.0604C0.565256 16.5358 0.92056 17.0274 1.40507 17.5352L11.1113 27.4048C11.5312 27.837 11.9727 28.1935 12.4356 28.4744C12.9094 28.7553 13.41 28.966 13.9376 29.1064C14.4759 29.2469 15.052 29.3171 15.6657 29.3171L29.4579 29.3333ZM14.2768 21.4895C13.9861 21.4895 13.7384 21.3923 13.5338 21.1978C13.34 20.9925 13.2431 20.744 13.2431 20.4523C13.2431 20.1606 13.3454 19.9121 13.55 19.7068L18.5566 14.6829L13.55 9.65893C13.3454 9.45365 13.2431 9.20516 13.2431 8.91345C13.2431 8.62173 13.34 8.37864 13.5338 8.18416C13.7384 7.98969 13.9861 7.89245 14.2768 7.89245C14.5782 7.89245 14.8259 8.00049 15.0197 8.21658L20.0262 13.2243L25.0651 8.20037C25.2696 7.98429 25.5119 7.87624 25.7918 7.87624C26.0825 7.87624 26.3248 7.97888 26.5186 8.18416C26.7232 8.37864 26.8254 8.61633 26.8254 8.89724C26.8254 9.17815 26.7232 9.42664 26.5186 9.64273L21.4959 14.6829L26.5024 19.6906C26.707 19.9175 26.8093 20.1714 26.8093 20.4523C26.8093 20.744 26.707 20.9925 26.5024 21.1978C26.3086 21.3923 26.0664 21.4895 25.7757 21.4895C25.4957 21.4895 25.2427 21.3815 25.0166 21.1654L20.0262 16.1576L15.052 21.1654C14.8366 21.3815 14.5782 21.4895 14.2768 21.4895Z" fill="#111E29"/>
</svg>
