<svg width="155" height="155" viewBox="0 0 155 155" fill="none" xmlns="http://www.w3.org/2000/svg">
<path d="M155 77.5C155 120.302 120.302 155 77.5 155C34.6979 155 0 120.302 0 77.5C0 34.6979 34.6979 0 77.5 0C120.302 0 155 34.6979 155 77.5Z" fill="#00829B" fill-opacity="0.1"/>
<path fill-rule="evenodd" clip-rule="evenodd" d="M73.4844 41.1509C64.7076 42.1232 57.1318 45.8317 51.0547 52.1309C45.6827 57.6992 42.3613 64.6063 41.26 72.5C41.015 74.256 41.015 79.744 41.26 81.5C41.8201 85.5146 42.9484 89.2389 44.6467 92.6797C46.5211 96.4771 48.2602 98.9732 51.0312 101.844C54.1829 105.108 57.2094 107.326 61.1797 109.281C64.8271 111.076 68.3052 112.134 72.5703 112.746C74.2452 112.986 79.7606 112.983 81.5 112.74C87.8619 111.852 93.7413 109.438 98.778 105.644C100.519 104.332 103.305 101.639 104.804 99.8174C109.148 94.5396 112.08 87.636 112.731 81.1484C112.817 80.2977 112.944 79.4917 113.014 79.3574C113.193 79.0126 113.18 74.4278 113 74.5391C112.915 74.5918 112.858 74.3876 112.857 74.02C112.855 73.6867 112.764 72.7812 112.654 72.0078C111.798 65.991 109.395 60.234 105.642 55.2078C104.351 53.4792 100.517 49.6462 98.7845 48.3526C93.7839 44.6181 88.1282 42.2547 81.9922 41.3353C80.2875 41.0799 75.1338 40.9681 73.4844 41.1509ZM74.5391 45.5865C70.1053 46.0517 66.4735 47.0805 62.8725 48.891C54.7841 52.9579 48.7828 60.3742 46.5519 69.0597C45.7869 72.0382 45.5788 73.7361 45.5788 77C45.5788 79.0569 45.6498 80.3377 45.8264 81.4705C48.0083 95.4655 58.5499 106.006 72.5295 108.172C74.7303 108.513 79.2809 108.511 81.4949 108.169C95.4465 106.009 106.008 95.4403 108.172 81.475C108.511 79.2816 108.512 74.7203 108.172 72.5295C106.017 58.6153 95.4508 47.993 81.6406 45.8558C80.2195 45.6358 75.701 45.4644 74.5391 45.5865ZM76.0859 56.1748C75.6818 56.355 75.2084 56.834 74.9604 57.3136C74.7717 57.6785 74.7503 59.3461 74.7831 71.1508C74.82 84.4589 74.8228 84.5764 75.1103 84.9615C75.6613 85.6995 76.1107 85.9297 77 85.9297C77.8893 85.9297 78.3387 85.6995 78.8897 84.9615C79.177 84.5767 79.1801 84.4534 79.2216 71.3296C79.2492 62.6067 79.2144 57.9166 79.1198 57.5898C79.0407 57.3169 78.7537 56.878 78.4818 56.6144C78.0534 56.1992 77.8795 56.1297 77.1773 56.0924C76.7318 56.0688 76.2406 56.1059 76.0859 56.1748ZM41.0578 77C41.0578 78.3535 41.0789 78.9073 41.1048 78.2305C41.1305 77.5538 41.1305 76.4462 41.1048 75.7695C41.0789 75.0928 41.0578 75.6465 41.0578 77ZM75.5938 92.3633C74.6274 92.8795 74.1369 93.6764 74.0754 94.8303C74.0335 95.6178 74.081 95.8779 74.3633 96.4062C74.8795 97.3726 75.6764 97.8631 76.8303 97.9246C77.6178 97.9665 77.8779 97.919 78.4062 97.6367C79.3726 97.1205 79.8631 96.3236 79.9246 95.1697C79.9665 94.3822 79.919 94.1221 79.6367 93.5938C79.1205 92.6274 78.3236 92.1369 77.1697 92.0754C76.3822 92.0335 76.1221 92.081 75.5938 92.3633Z" fill="#00829B"/>
</svg>
