<svg width="36" height="55" viewBox="0 0 36 55" fill="none" xmlns="http://www.w3.org/2000/svg">
<path d="M18.9346 27.9466C19.4738 27.0027 19.7436 25.7662 21.1581 25.8034C22.4087 25.8364 23.1421 26.6607 23.8531 27.7045C24.1768 27.3608 24.4133 27.1239 24.6338 26.8733C25.8674 25.4718 27.5329 25.5849 28.5279 27.1418C29.2766 28.3118 29.2819 28.324 30.4803 27.7473C31.3332 27.3368 32.0632 27.4939 32.7549 28.1117C34.0116 29.2322 35.0184 31.4145 35.4084 33.0174C36.4053 37.1151 36.0177 40.6613 35.1656 44.8615C34.7848 46.7412 34.4539 48.513 33.7757 50.3294C33.4103 51.3101 32.6609 53.2415 32.2155 54.1846C32.062 54.5107 31.7753 54.923 31.4539 54.9518C27.0746 54.9518 23.4569 54.76 19.2253 54.9925C18.5471 55.0479 18.2733 54.8007 17.9938 54.1485C17.6547 53.3562 17.1292 52.5249 16.4557 52.0186C13.933 50.1318 11.6935 47.8886 9.8062 45.3581C8.15139 43.1395 5.77267 41.9057 3.19916 41.0426C2.59767 40.8408 1.97543 40.6925 1.39032 40.4524C-0.119973 39.8331 -0.462701 38.4126 0.673443 37.2374C1.82463 36.0465 3.26447 35.6071 4.8553 36.1883C6.01334 36.6114 7.09236 37.2551 8.25193 37.6726C9.33845 38.0942 10.4691 38.3896 11.6221 38.5532C12.7634 38.6842 13.2386 38.1945 13.3772 37.0326C13.493 36.0178 13.5496 34.997 13.5469 33.9755C13.5585 28.9579 13.5046 23.9399 13.5642 18.9231C13.5662 17.4639 13.6794 16.0071 13.9028 14.5654C14.0579 13.6288 14.8506 13.0321 15.8338 12.9316C16.2817 12.8623 16.7393 12.9598 17.121 13.2058C17.5026 13.4518 17.7823 13.8294 17.9075 14.2681C18.2312 15.2206 18.3099 16.4337 18.3342 17.4315C18.4104 20.5294 18.5423 23.4387 18.5511 26.5384C18.5524 26.9857 18.6351 27.4327 18.6802 27.8798L18.9346 27.9466Z" fill="white"/>
<path d="M20.1469 17.8216C20.0976 17.2552 20.0479 16.924 20.0439 16.5921C20.0311 15.5073 20.0593 14.4215 20.0275 13.3375C19.9588 10.9823 18.2053 9.29047 15.8624 9.28874C13.5124 9.28606 11.7596 10.9682 11.6969 13.3373C11.6588 14.7664 11.6901 16.1976 11.6901 17.6898C9.68929 16.4105 9.32905 12.4523 10.9027 10.088C12.7815 7.26697 16.7156 6.54176 19.363 8.52844C22.2716 10.7113 22.6835 14.5341 20.1469 17.8216Z" fill="white"/>
<path d="M8.56343 22.167C5.74735 19.7724 3.56093 16.2718 3.56093 12.563C3.56093 9.23107 4.87489 6.03563 7.21375 3.67961C9.55261 1.3236 12.7248 0 16.0324 0C19.3401 0 22.5123 1.3236 24.8511 3.67961C27.19 6.03563 28.5039 9.23107 28.5039 12.563C28.5039 16.2674 26.3208 19.7653 23.5102 22.1596L23.4232 19.5442C25.805 17.5151 26.5999 15.7018 26.5999 12.563C26.5999 9.73976 25.4865 7.03217 23.5048 5.03585C21.523 3.03953 18.8351 1.91801 16.0324 1.91801C13.2298 1.91801 10.5419 3.03953 8.56011 5.03585C6.57833 7.03217 5.46498 9.73976 5.46498 12.563C5.46498 15.7056 6.26258 17.5212 8.64911 19.5505L8.56343 22.167Z" fill="white"/>
</svg>
