<svg width="70" height="65" viewBox="0 0 70 65" fill="none" xmlns="http://www.w3.org/2000/svg">
<path d="M0 20.0319H2.24131V2.24131H66.961V20.0319H69.2023V0H0V20.0319Z" fill="#00829B"/>
<path d="M33.1162 10.6468C31.1694 10.9971 29.4182 11.9356 27.9614 13.3923C24.0246 17.315 24.1651 23.1146 28.2693 26.9108C31.2111 29.6287 35.2876 30.1746 38.8459 28.3393C40.3726 27.5548 42.2361 25.6496 42.9924 24.0664C44.3235 21.3351 44.3094 18.5472 42.95 15.8575C41.7312 13.434 39.2378 11.4307 36.6604 10.8001C35.7078 10.5762 33.9707 10.4922 33.1162 10.6468ZM36.0722 12.9581C38.86 13.5463 40.8909 15.5214 41.5356 18.2393C42.46 22.1478 40.2328 25.9857 36.4923 26.9666C34.6429 27.4425 32.3035 27.1205 30.7351 26.182C26.4905 23.6187 26.1685 17.1328 30.1469 14.2044C31.8417 12.9581 33.9566 12.5097 36.0722 12.9581Z" fill="#00829B"/>
<path d="M14.5688 54.4931H15.4092C15.8717 54.5072 24.5424 54.5072 34.6707 54.5072C44.7989 54.5072 53.4139 54.5072 53.7924 54.4931H54.4929V11.6272H52.2516V52.2511H16.8102V11.6265H14.5688V54.4931Z" fill="#00829B"/>
<path d="M20.8023 42.0952L22.2033 42.1793C23.8564 42.2633 24.5985 42.5436 25.5652 43.4397C26.6859 44.4764 27.0644 45.359 27.2466 47.3765L27.3447 48.3291H42.0255V47.6427C42.0255 44.4206 43.8883 42.3756 46.9982 42.1793L48.2586 42.0952L48.3285 11.6265H46.0872L46.0166 39.9514L45.2462 40.1894C42.8651 40.9315 40.9176 42.8367 40.1754 45.1204L39.8668 46.0871L34.6279 46.0588L29.389 46.0172L29.1228 45.1627C28.8283 44.196 28.0304 42.9073 27.2317 42.1087C26.181 41.0579 25.0886 40.4697 23.295 39.9796C23.1552 39.9373 23.1128 36.9813 23.1128 25.7748V11.6265H20.7324L20.8023 42.0952Z" fill="#00829B"/>
<path d="M14.5688 64.9999H54.4929V56.4541H14.5688V64.9999ZM52.2516 62.7579H16.8102V58.6954H52.2516V62.7579Z" fill="#00829B"/>
</svg>
