<svg width="32" height="32" viewBox="0 0 32 32" fill="none" xmlns="http://www.w3.org/2000/svg">
<path fill-rule="evenodd" clip-rule="evenodd" d="M14.501 0.0375523C11.3876 0.338773 8.30155 1.60472 5.8817 3.57336C5.16992 4.15245 4.04294 5.28838 3.47525 5.9991C2.03985 7.79603 0.863584 10.2267 0.375744 12.4037C0.0693873 13.7711 0 14.4359 0 16.0045C0 17.5732 0.0693873 18.2379 0.375744 19.6054C0.87423 21.8299 2.08118 24.2953 3.5643 26.1183C4.14339 26.8301 5.27932 27.9571 5.99004 28.5247C7.78697 29.9602 10.2176 31.1364 12.3946 31.6243C13.7621 31.9306 14.4268 32 15.9955 32C17.5641 32 18.2289 31.9306 19.5963 31.6243C21.2331 31.2575 23.3733 30.3429 24.7797 29.4092C27.2189 27.7899 29.0923 25.6592 30.3714 23.0497C31.1549 21.4512 31.5999 20.0197 31.8802 18.1964C32.0353 17.1875 32.0353 14.8216 31.8802 13.8127C31.5999 11.9894 31.1549 10.5578 30.3714 8.95934C29.5353 7.25358 28.6034 5.95589 27.2579 4.62407C25.9369 3.31648 24.7268 2.45722 23.0407 1.62945C21.4612 0.854043 19.999 0.396763 18.2499 0.131175C17.4634 0.0117512 15.3206 -0.0417922 14.501 0.0375523ZM17.9994 1.57641C21.18 2.03839 24.0548 3.47072 26.292 5.70796C28.5362 7.95209 29.9269 10.7464 30.4345 14.0319C30.5089 14.5128 30.541 15.1082 30.541 16.0045C30.541 18.3733 30.0758 20.3765 29.0402 22.4674C26.8912 26.8063 22.9001 29.6815 17.9681 30.4436C17.0223 30.5898 14.9686 30.5898 14.0228 30.4436C10.7374 29.9359 7.94303 28.5453 5.6989 26.3011C3.45471 24.057 2.06409 21.2626 1.55639 17.9772C1.41023 17.0314 1.41023 14.9777 1.55639 14.0319C1.81453 12.3616 2.25233 10.9518 2.95072 9.54168C5.06133 5.28043 9.02411 2.37969 13.8016 1.59889C15.0096 1.4015 16.7319 1.39223 17.9994 1.57641ZM16.9422 8.0789C16.3539 8.27035 15.7877 8.80522 15.6198 9.32825C15.4232 9.94059 15.6521 10.7352 16.1514 11.1735C17.2521 12.1399 19.1034 11.7267 19.5382 10.4174C19.9296 9.23926 19.0312 8.06575 17.695 8.00971C17.3976 7.99724 17.1128 8.02342 16.9422 8.0789ZM14.8714 13.4419C14.4429 13.5175 12.7316 14.1036 12.6399 14.2062C12.5694 14.285 12.3423 15.065 12.3791 15.1019C12.3906 15.1134 12.582 15.0656 12.8043 14.9958C13.6773 14.7218 14.4914 14.8488 14.7027 15.2919C14.9272 15.7627 14.8184 16.4178 14.1198 18.8033C13.5801 20.6463 13.4862 21.0836 13.4764 21.7972C13.4701 22.2583 13.4947 22.4203 13.6116 22.6874C13.7961 23.1088 14.2535 23.5354 14.7906 23.7867C15.1692 23.9639 15.2828 23.9859 15.9419 24.0094C16.8199 24.0407 17.2367 23.9599 18.4065 23.5319L19.2206 23.2341L19.3415 22.814C19.408 22.583 19.4476 22.3791 19.4296 22.361C19.4115 22.343 19.2725 22.3747 19.1208 22.4316C18.7149 22.5836 17.6613 22.5864 17.3861 22.4361C16.7322 22.0791 16.7725 21.4769 17.6517 18.4645C18.2013 16.5814 18.2501 16.3513 18.2559 15.6166C18.264 14.5734 17.9259 14.0328 16.9975 13.6044C16.6355 13.4374 16.5139 13.4147 15.9015 13.3991C15.5227 13.3895 15.0591 13.4088 14.8714 13.4419Z" fill="#6E747B"/>
</svg>
