<svg width="32" height="32" viewBox="0 0 32 32" fill="none" xmlns="http://www.w3.org/2000/svg">
<path d="M13.9909 0.0922715C10.5025 0.542381 7.19549 2.16777 4.68864 4.68088C2.15052 7.21275 0.53763 10.5135 0.0937727 14.0582C-0.0312576 15.0646 -0.0312576 16.9276 0.0937727 17.9341C0.762685 23.3041 4.08224 27.9678 8.97092 30.3746C11.1965 31.4811 13.447 32 15.9726 32C17.5167 32 18.5858 31.8625 20.0048 31.4936C21.2051 31.1748 22.7305 30.5559 23.762 29.962C24.0246 29.812 24.2746 29.6869 24.3246 29.6869C24.3747 29.6869 26.1063 30.2121 28.1818 30.8497C30.2511 31.4936 31.964 32 31.989 31.9812C32.0078 31.9562 31.5451 30.1746 30.9513 28.0178C30.3636 25.8548 29.8822 24.0606 29.8822 24.0168C29.8822 23.9793 30.051 23.6105 30.2573 23.2041C31.4514 20.8661 32.0078 18.553 32.0078 15.9649C32.0078 13.4393 31.4889 11.1887 30.3824 8.96317C27.9755 4.07449 23.3119 0.754932 17.9418 0.08602C16.9854 -0.0327588 14.9286 -0.0265073 13.9909 0.0922715ZM17.373 5.83741C20.3612 6.27502 23.0806 8.05045 24.6185 10.5698C25.4562 11.9326 25.9 13.1767 26.1001 14.7021C26.4064 17.0526 25.9063 19.3157 24.6185 21.4224C23.2931 23.5855 21.0489 25.2421 18.5045 25.9298C17.1792 26.2861 15.1599 26.3486 13.8721 26.0673C9.60233 25.1421 6.42031 21.7725 5.74514 17.4652C5.64512 16.8213 5.64512 15.1709 5.74514 14.527C6.46407 9.93216 10.0462 6.4188 14.6598 5.7874C15.1537 5.71863 16.7603 5.74989 17.373 5.83741Z" fill="black"/>
<path d="M15.4974 7.71297C14.7722 8.24434 14.072 9.67594 13.6532 11.4951C13.5719 11.8577 13.5031 12.1703 13.5031 12.1953C13.5031 12.2266 14.6284 12.2453 16.01 12.2453H18.5168L18.4731 12.039C18.1042 10.2323 17.5228 8.80073 16.8352 8.01304C16.4226 7.54417 15.8975 7.4254 15.4974 7.71297Z" fill="black"/>
<path d="M12.1712 8.43189C11.8274 8.60693 11.3398 8.8945 11.0772 9.0758C10.177 9.68844 9.15175 10.8262 8.60162 11.7952C8.47659 12.014 8.37656 12.2078 8.37656 12.2203C8.37656 12.2328 9.12049 12.2453 10.0332 12.2453C11.5211 12.2453 11.6899 12.2328 11.6899 12.1453C11.6899 11.7264 12.2963 9.56341 12.6088 8.8695C12.9402 8.13807 12.9464 8.11931 12.8651 8.11931C12.8214 8.11931 12.5088 8.2631 12.1712 8.43189Z" fill="black"/>
<path d="M19.1297 8.21934C19.1297 8.23809 19.2235 8.4694 19.3422 8.73196C19.7111 9.58217 20.3175 11.6889 20.3175 12.1453C20.3175 12.2328 20.48 12.2453 21.8804 12.2453C22.7431 12.2453 23.4432 12.2203 23.4432 12.1953C23.4432 12.1265 22.8056 11.1075 22.5805 10.8075C21.9241 9.94476 20.8301 9.03203 19.8174 8.50066C19.2047 8.18183 19.1297 8.15057 19.1297 8.21934Z" fill="black"/>
<path d="M7.66985 14.1643C7.48231 14.4832 7.41979 16.6587 7.57608 17.4339L7.65735 17.8402L9.5328 17.859L11.4083 17.8715V14.1206H9.55156C8.53256 14.1206 7.68236 14.1393 7.66985 14.1643Z" fill="black"/>
<path d="M13.2281 14.3144C13.2094 14.4206 13.1906 15.1771 13.1906 15.996C13.1906 16.815 13.2094 17.5714 13.2281 17.6777L13.2719 17.8715H18.742L18.7795 17.6777C18.7982 17.5714 18.817 16.815 18.817 15.996C18.817 15.1771 18.7982 14.4206 18.7795 14.3144L18.742 14.1206H13.2719L13.2281 14.3144Z" fill="black"/>
<path d="M20.5984 17.8715H24.1806L24.2618 17.3526C24.3744 16.6962 24.3744 15.2959 24.2618 14.6332L24.1806 14.1206H20.5984V17.8715Z" fill="black"/>
<path d="M8.37656 19.772C8.37656 19.7845 8.47659 19.9783 8.60162 20.1971C9.15175 21.1723 10.177 22.3039 11.0772 22.9228C11.5836 23.2729 12.7839 23.898 12.8777 23.8605C12.9089 23.848 12.8401 23.6292 12.7214 23.3729C12.34 22.5477 11.6899 20.3284 11.6899 19.847C11.6899 19.7595 11.5211 19.747 10.0332 19.747C9.12049 19.747 8.37656 19.7595 8.37656 19.772Z" fill="black"/>
<path d="M13.5031 19.7907C13.5031 19.8219 13.5719 20.1345 13.6532 20.4971C14.1845 22.7977 15.1473 24.4355 15.9787 24.4355C16.9227 24.4355 17.9292 22.6289 18.4731 19.947L18.5168 19.7469H16.01C14.6284 19.7469 13.5031 19.7657 13.5031 19.7907Z" fill="black"/>
<path d="M20.317 19.847C20.317 20.3034 19.7106 22.4101 19.3355 23.2666C19.2168 23.5354 19.1355 23.773 19.1543 23.7917C19.2168 23.8542 20.4358 23.1666 20.9547 22.779C21.4548 22.3976 22.2362 21.6349 22.5801 21.1848C22.8051 20.8848 23.4428 19.8658 23.4428 19.797C23.4428 19.772 22.7426 19.747 21.8799 19.747C20.4796 19.747 20.317 19.7595 20.317 19.847Z" fill="black"/>
</svg>
