<svg width="36" height="41" viewBox="0 0 36 41" fill="none" xmlns="http://www.w3.org/2000/svg">
<path d="M17.6063 0.0914063C17.4563 0.147656 13.7625 3.99141 8.67188 9.37266L0 18.5602V19.0289C0 19.4227 0.046875 19.5445 0.271875 19.7789L0.54375 20.0508H9.9375V29.6602C9.9375 40.2164 9.90937 39.6633 10.5 39.9727C10.7344 40.0945 11.7187 40.1133 18 40.1133C24.2813 40.1133 25.2656 40.0945 25.5 39.9727C26.0906 39.6633 26.0625 40.2164 26.0625 29.6602V20.0508H35.4563L35.7281 19.7789C35.9531 19.5445 36 19.4227 36 19.0289V18.5602L27.3281 9.37266C21.2531 2.95078 18.5625 0.157031 18.3563 0.0914063C18.0188 -0.0304687 17.9438 -0.0304687 17.6063 0.0914063ZM25.275 10.3008L32.4938 17.9414L24.5719 18.0352L24 18.5883V38.0508H12V18.5883L11.4281 18.0352L3.50625 17.9414L10.725 10.282C14.7 6.07266 17.9813 2.63203 18.0094 2.64141C18.0375 2.65078 21.3094 6.10078 25.275 10.3008Z" fill="black"/>
</svg>
