<svg width="50" height="50" viewBox="0 0 50 50" fill="none" xmlns="http://www.w3.org/2000/svg">
<path fill-rule="evenodd" clip-rule="evenodd" d="M3.20859 0.201033C2.67044 0.444206 2.18641 0.894908 1.90566 1.41407C1.70462 1.78586 1.693 1.94661 1.66477 4.74965L1.63517 7.69459L1.40951 7.75124C1.09399 7.83034 0.452879 8.47695 0.2325 8.9381C-0.036331 9.50082 -0.0760891 10.2595 0.134423 10.8106C0.338684 11.3453 0.942186 12.0356 1.35501 12.2065L1.64562 12.3269L1.64728 14.7809C1.64923 17.5284 1.73422 18.1631 2.23711 19.1843C2.69769 20.1197 3.3559 20.8729 4.2001 21.4306L4.94485 21.9227L4.98315 30.0285L5.02144 38.1343L5.2805 39.0822C6.06072 41.9364 7.84915 44.1981 10.3658 45.5134C11.7683 46.2463 12.9706 46.5619 14.7021 46.6513L15.7922 46.7077L15.8255 47.605C15.8551 48.3988 15.8928 48.5577 16.1524 48.9826C16.3727 49.343 16.5781 49.5299 16.9758 49.7314L17.5058 50L30.749 49.9994C39.6888 49.9991 44.1122 49.9656 44.3613 49.8965C44.8415 49.7632 45.3936 49.2724 45.6173 48.7801C45.7852 48.4109 45.7953 47.8904 45.7974 39.6236C45.7985 34.8028 45.8122 30.8586 45.8278 30.8586C45.8432 30.8586 46.0283 30.9465 46.2391 31.0539C46.7253 31.3017 47.2257 31.3021 47.631 31.055C47.95 30.8607 49.5098 28.9685 49.8291 28.3888C49.923 28.2181 50 27.9305 50 27.7498C50 27.0466 49.8052 26.848 46.9108 24.599L44.1389 22.4451L44.1373 18.9122C44.1356 15.4373 44.1321 15.3732 43.9175 14.9962C43.7814 14.7572 43.5371 14.5273 43.2688 14.3858C42.8592 14.1698 42.742 14.1587 40.8574 14.1587C38.7525 14.1587 38.5016 14.2007 38.0495 14.6289C37.6123 15.0428 37.5527 15.2195 37.4985 16.2629L37.4474 17.244L34.9076 15.2616C33.5107 14.1712 32.11 13.1035 31.7949 12.8888C31.1989 12.4827 30.816 12.4062 30.3207 12.5945C30.0577 12.6945 12.2685 26.4931 11.9855 26.8166C11.7256 27.1139 11.6109 27.6814 11.7263 28.0997C11.871 28.6242 13.6539 30.8843 14.0841 31.0884C14.5356 31.3027 14.954 31.2912 15.4232 31.052L15.81 30.8546V36.2768V41.6989L15.3949 41.6969C14.0701 41.6907 12.9317 41.3322 11.9993 40.6276C10.8812 39.7827 10.2049 38.589 10.042 37.1727C9.99159 36.7347 9.95007 33.1385 9.94968 29.181L9.9489 21.9857L10.5106 21.6427C11.1756 21.2365 12.0566 20.3585 12.4832 19.6765C12.6512 19.408 12.9037 18.8366 13.0444 18.4069C13.2888 17.6606 13.3022 17.507 13.345 14.9751C13.3898 12.3364 13.3909 12.324 13.6111 12.2238C14.02 12.0374 14.518 11.5231 14.7408 11.0568C15.0062 10.5012 15.0371 9.59936 14.8091 9.06672C14.6104 8.60283 14.0269 7.96238 13.6675 7.81354L13.383 7.69577L13.3465 4.79907C13.3156 2.35649 13.2844 1.8468 13.1471 1.54796C12.9096 1.03056 12.5293 0.615991 12.0145 0.313439C11.6277 0.0861843 11.4526 0.0471202 10.8281 0.0490734C9.95046 0.0518079 9.46858 0.266465 8.9315 0.893736C8.34578 1.57785 8.28824 1.93597 8.28824 4.89878V7.51783H7.45791H6.62759V4.70483V1.89192L6.37458 1.38428C5.78964 0.210799 4.36489 -0.321742 3.20859 0.201033ZM3.59181 1.94368L3.30628 2.22914V4.87349V7.51783H4.1366H4.96693L4.9638 4.85659C4.96058 2.06302 4.95238 2.00775 4.50937 1.7718C4.16532 1.58869 3.89659 1.63898 3.59181 1.94368ZM10.4574 1.75686C10.0009 1.94749 9.94333 2.33217 9.97166 5.00396L9.99774 7.469L10.8036 7.49732L11.6096 7.52574V4.84692C11.6096 2.43921 11.5923 2.1473 11.4386 1.96233C11.2382 1.72092 10.7753 1.62404 10.4574 1.75686ZM1.93116 9.46351C1.55975 9.83482 1.56054 10.1823 1.9336 10.5553L2.22157 10.8432L7.55921 10.8163L12.8969 10.7894L13.0835 10.5589C13.3676 10.2081 13.3331 9.63227 13.0128 9.3805C12.7596 9.18137 12.6691 9.17805 7.48605 9.17805H2.21669L1.93116 9.46351ZM3.30628 14.773C3.30628 17.225 3.37856 17.7473 3.83964 18.6283C4.3394 19.5833 5.20724 20.2983 6.25081 20.6152C8.42744 21.2762 10.6874 20.1243 11.4076 17.9869C11.5904 17.4445 11.6096 17.1557 11.6096 14.9431V12.4985H7.45791H3.30628V14.773ZM22.2951 20.8552C17.6269 24.4845 13.7243 27.5354 13.6225 27.6349C13.4414 27.8121 13.4513 27.8337 14.0954 28.6582C14.5487 29.2387 14.7884 29.4728 14.8665 29.4113C18.9067 26.2272 30.307 17.417 30.5249 17.3104C30.7963 17.1778 30.8642 17.1771 31.1204 17.3049C31.2794 17.3842 34.8638 20.1355 39.0856 23.419C43.3075 26.7024 46.804 29.4009 46.8559 29.4157C46.9078 29.4304 47.2408 29.069 47.5961 28.6124L48.242 27.7823L48.022 27.6004C47.4266 27.1077 30.8677 14.2564 30.8283 14.2564C30.8032 14.2564 26.9633 17.2258 22.2951 20.8552ZM39.1611 17.2106L39.1654 18.6023L40.7428 19.823C41.6105 20.4944 42.3558 21.0584 42.3993 21.0763C42.4426 21.0943 42.4782 19.9186 42.4782 18.4639V15.8189H40.8176H39.1569L39.1611 17.2106ZM24.1377 24.3233L17.4707 29.5069V38.7699C17.4707 47.0605 17.4868 48.0489 17.6242 48.1864C17.7622 48.3242 19.0955 48.3398 30.841 48.3398C40.8712 48.3398 43.9317 48.3125 44.0216 48.2226C44.1112 48.133 44.1379 45.9062 44.1348 38.774L44.1307 29.4425L37.5271 24.3154C33.8953 21.4954 30.8969 19.1773 30.8643 19.164C30.8315 19.1506 27.8047 21.4723 24.1377 24.3233ZM6.65084 30.1994C6.68366 37.9033 6.68483 37.9426 6.9057 38.7203C7.57992 41.0949 9.16526 43.0471 11.2677 44.0915C12.3734 44.6408 13.3907 44.9018 14.7471 44.9842L15.81 45.0487V44.2186V43.3886L14.8576 43.3284C13.6894 43.2545 12.9418 43.0684 12.0491 42.6289C10.7059 41.9677 9.67997 40.9421 9.01864 39.5992C8.3153 38.1712 8.34637 38.5881 8.31169 30.1017L8.28043 22.4598H7.44912H6.61782L6.65084 30.1994ZM32.3536 26.8005C32.0009 26.9539 25.2368 34.3307 25.0866 34.7257C24.8536 35.3384 25.0897 36.0073 25.698 36.4577C25.9155 36.6188 26.1595 36.6627 27.0411 36.699C27.7448 36.7279 28.1188 36.7813 28.1194 36.8528C28.12 36.913 27.9393 38.4458 27.7179 40.2588C27.4791 42.2149 27.3415 43.6947 27.3797 43.8981C27.4702 44.3801 28.0018 44.8848 28.5095 44.9706C29.2407 45.094 29.4854 44.8786 33.0029 41.0153C34.7878 39.0547 36.331 37.3188 36.4323 37.1577C36.6757 36.7703 36.6728 36.0782 36.426 35.6736C36.0855 35.1153 35.8179 35.0131 34.595 34.9743L33.4922 34.9392L33.5435 34.5836C33.7608 33.0752 34.2726 28.5154 34.2726 28.0864C34.2726 27.6536 34.2245 27.4959 34.0168 27.2492C33.5389 26.6814 32.9762 26.5296 32.3536 26.8005ZM29.7396 31.9519L27.0408 34.9115L28.1901 34.9614C28.8222 34.9889 29.4338 35.0648 29.549 35.1303C29.9742 35.3716 29.973 35.5951 29.5268 39.2561C29.2948 41.16 29.1137 42.7256 29.1245 42.7352C29.1353 42.7448 30.3707 41.4059 31.8696 39.7598L34.5952 36.767L33.3976 36.7157C32.2375 36.666 32.1927 36.6559 31.9664 36.3929C31.8379 36.2436 31.7328 36.0054 31.7328 35.8637C31.7328 35.722 31.9115 34.1379 32.1299 32.3435C32.3483 30.5491 32.5071 29.061 32.4827 29.0367C32.4584 29.0123 31.2239 30.3242 29.7396 31.9519Z" fill="#00829B"/>
</svg>
