<svg width="50" height="38" viewBox="0 0 50 38" fill="none" xmlns="http://www.w3.org/2000/svg">
<path fill-rule="evenodd" clip-rule="evenodd" d="M40.5319 0.258113C39.2975 0.411412 30.8664 1.39688 21.796 2.44812C9.58083 3.86386 5.178 4.40691 4.81665 4.54244C4.17514 4.78307 3.39379 5.37849 3.19023 5.78175C3.06367 6.03259 3.04972 6.16733 3.12729 6.38902C3.33134 6.97162 3.91537 7.02622 4.45052 6.51269C5.18892 5.804 4.48194 5.92883 13.9894 4.82786C16.2973 4.5606 23.8416 3.6854 30.7545 2.88286C37.6675 2.08041 43.4859 1.42476 43.6842 1.42593C44.4204 1.4303 45.2978 1.99852 45.6646 2.70828C45.898 3.16012 45.8106 2.49203 47.2709 14.9759C48.007 21.2688 48.475 25.6173 48.4402 25.8412C48.3543 26.3939 48.0556 26.9087 47.5909 27.3047C47.1485 27.6815 46.8105 27.8036 45.9234 27.9067L45.3623 27.9719V27.6155C45.3623 26.8035 44.9543 26.3738 44.3312 26.5294C43.8306 26.6546 43.801 26.9062 43.801 31.0318V34.8045L43.5522 35.3014C43.4154 35.5747 43.1526 35.9129 42.9683 36.0529C42.2128 36.6266 43.544 36.5915 22.5888 36.5892C3.44756 36.5871 3.35076 36.5861 2.91378 36.3892C2.37239 36.1453 1.98519 35.7885 1.70942 35.2799L1.49883 34.8913V23.2821V11.6729L1.77372 11.2074C2.11995 10.6209 2.68583 10.2088 3.33573 10.0699C3.69932 9.99205 9.19801 9.97019 22.967 9.99156C41.4018 10.0203 42.1057 10.0279 42.4348 10.2023C42.872 10.4338 43.382 10.9117 43.5897 11.2843C43.7352 11.5452 43.7572 12.2444 43.801 17.9717L43.8497 24.3676L44.1236 24.602C44.4692 24.8979 44.6941 24.8979 45.0397 24.6019L45.3135 24.3674V18.0202C45.3135 11.7154 45.312 11.6691 45.0986 11.1067C44.6949 10.0428 43.8169 9.16522 42.7275 8.7368C42.3118 8.5734 41.238 8.56417 22.6255 8.56417H2.96257L2.31628 8.86902C1.20238 9.39449 0.455673 10.2415 0.139017 11.3388C-0.000526592 11.8224 -0.0140906 13.0943 0.00913409 23.4823L0.0350911 35.0856L0.262947 35.6476C0.583018 36.4371 1.39608 37.2845 2.21685 37.6844L2.86499 38H22.6306H42.3962L43.141 37.6336C44.3514 37.0379 45.0673 36.0463 45.2609 34.697C45.3146 34.323 45.3593 32.9878 45.3603 31.73L45.3623 29.4429L46.2213 29.3436C47.3012 29.2188 48.2078 28.8166 48.8176 28.192C49.2784 27.7199 49.8357 26.7231 49.874 26.3024C49.8866 26.1641 49.9202 28.018 49.9487 30.4225C49.9772 32.8269 50.0003 29.57 50 23.1849C49.9996 14.2417 49.9881 13.0976 49.9496 18.2028L49.8999 24.8299L48.6173 13.8797C47.5764 4.99233 47.2945 2.82369 47.1209 2.36758C46.8247 1.58914 46.0207 0.742298 45.1925 0.336414C44.6315 0.0614855 44.4433 0.0201976 43.6645 0.0010595C43.1382 -0.011764 41.862 0.0928643 40.5319 0.258113ZM0.0335298 23.2821C0.0335298 29.6671 0.0452397 32.2792 0.0594868 29.0867C0.0737339 25.8941 0.0737339 20.67 0.0594868 17.4775C0.0452397 14.2849 0.0335298 16.897 0.0335298 23.2821ZM37.1961 14.0537C36.9147 14.1666 36.7444 14.4994 36.8051 14.8171C36.8322 14.9579 37.0003 15.4665 37.1788 15.9474C37.4912 16.7889 37.5034 16.8746 37.5034 18.2304C37.5034 19.5877 37.4915 19.6709 37.1777 20.5134C36.7468 21.6704 36.7126 21.921 36.9467 22.2088C37.1756 22.4901 37.6611 22.5187 37.9402 22.2672C38.2197 22.0155 38.6861 20.8324 38.8777 19.889C39.0786 18.9 39.0269 16.9509 38.7759 16.0547C38.5079 15.0974 38.0554 14.1867 37.7874 14.0652C37.5097 13.9392 37.4829 13.9387 37.1961 14.0537ZM34.1474 15.6691C33.8906 15.9939 33.8938 16.092 34.1874 16.9189C34.5143 17.8396 34.5099 18.5917 34.1717 19.5893C33.8778 20.456 33.9252 20.76 34.3868 20.9694C34.9716 21.2346 35.4516 20.7071 35.758 19.4623C36.0663 18.2101 35.8055 16.4271 35.2026 15.664C34.9269 15.3151 34.4251 15.3175 34.1474 15.6691ZM31.5369 16.8887C31.2056 17.0481 31.0721 17.4665 31.2214 17.8775C31.3225 18.1558 31.3215 18.291 31.2162 18.6088C31.1025 18.9516 31.1069 19.029 31.2526 19.2504C31.7813 20.0538 32.6215 19.6081 32.752 18.4552C32.8155 17.8945 32.6085 17.199 32.3081 16.9638C32.039 16.7531 31.8557 16.7352 31.5369 16.8887ZM6.67072 17.1308C5.82243 17.3205 5.29295 17.697 4.93287 18.3669C4.73107 18.7425 4.71906 18.8869 4.71906 20.9505C4.71906 22.8969 4.73897 23.1736 4.90096 23.4764C5.15555 23.9523 5.53095 24.3328 5.98764 24.5782C6.35611 24.7761 6.52952 24.7896 9.08599 24.8191C12.104 24.8537 12.522 24.7963 13.1756 24.2571C13.8778 23.6778 13.9406 23.4065 13.9406 20.9573V18.791L13.676 18.3068C13.3703 17.7477 12.7919 17.3096 12.171 17.1671C11.7601 17.0729 7.06856 17.0419 6.67072 17.1308ZM6.54669 18.684C6.21628 18.8164 6.13401 19.2659 6.13401 20.9394C6.13401 21.8469 6.17607 22.6995 6.2274 22.8339C6.42383 23.3482 6.68662 23.3911 9.44822 23.3595C11.9684 23.3308 11.9741 23.3302 12.2252 23.0952L12.4769 22.8596V20.9505C12.4769 19.0806 12.4723 19.0371 12.2511 18.8302C12.0301 18.6235 11.9677 18.6192 9.348 18.6267C7.87548 18.6308 6.6149 18.6567 6.54669 18.684ZM8.40476 20.2416C8.14851 20.2909 7.79292 20.7074 7.79292 20.9582C7.79292 21.0549 7.8988 21.2566 8.02829 21.4065C8.25273 21.6665 8.30826 21.6804 9.22368 21.7066C10.3016 21.7375 10.6128 21.6381 10.762 21.2156C10.9065 20.8068 10.7317 20.4382 10.328 20.3002C10.0024 20.1891 8.8595 20.1542 8.40476 20.2416ZM4.87256 27.5211C4.62041 27.8402 4.61514 28.1473 4.85675 28.4444L5.04314 28.6738L8.44965 28.7016C11.7883 28.7289 11.8612 28.7254 12.1177 28.5246C12.4444 28.2687 12.4767 27.7507 12.1841 27.4594C11.9963 27.2724 11.8589 27.2652 8.53191 27.2652H5.07475L4.87256 27.5211ZM14.331 27.4594C14.0138 27.7752 14.0372 28.1881 14.3902 28.5038C14.6334 28.7212 14.6513 28.7224 17.8936 28.7224C20.1079 28.7224 21.2302 28.6872 21.3945 28.6126C21.8896 28.3881 21.9336 27.6176 21.4656 27.3682C21.3399 27.3013 20.0901 27.2652 17.8992 27.2652C14.6562 27.2652 14.5186 27.2726 14.331 27.4594ZM23.7159 27.49C23.4345 27.7883 23.4455 28.1874 23.7433 28.4839L23.9828 28.7224H27.3583H30.7337L30.9732 28.4839C31.266 28.1925 31.2788 27.8607 31.0105 27.5211L30.8083 27.2652H27.3682H23.9281L23.7159 27.49ZM33.074 27.5211C32.8056 27.8607 32.8185 28.1925 33.1113 28.4839L33.3507 28.7224H36.7086C39.958 28.7224 40.0748 28.7159 40.3236 28.521C40.6458 28.2687 40.6762 27.7488 40.3856 27.4594C40.1977 27.2724 40.0603 27.2652 36.7333 27.2652H33.2762L33.074 27.5211ZM4.90984 31.3896C4.7781 31.5207 4.67027 31.7412 4.67027 31.8797C4.67027 32.0181 4.7781 32.2386 4.90984 32.3698L5.14931 32.6083H13.2423C21.0042 32.6083 21.3445 32.6008 21.5608 32.4265C21.8741 32.1739 21.8741 31.5854 21.5608 31.3328C21.3445 31.1585 21.0042 31.1511 13.2423 31.1511H5.14931L4.90984 31.3896Z" fill="#00829B"/>
</svg>
