<svg width="40" height="50" viewBox="0 0 40 50" fill="none" xmlns="http://www.w3.org/2000/svg">
<path fill-rule="evenodd" clip-rule="evenodd" d="M13.4987 0.103445C12.4155 0.357927 11.4051 1.15892 10.9368 2.13422L10.6499 2.73183L10.6498 8.9605L10.6497 15.1891L9.77885 15.1903C8.78524 15.1917 8.10436 15.4363 7.41979 16.0378C7.05342 16.3597 6.46967 17.3979 6.46957 17.728C6.46937 18.0457 6.03264 19.5401 5.1713 22.1699C4.684 23.6578 4.14972 25.4058 3.984 26.0544C3.4985 27.955 3.08545 31.2552 3.08545 33.2339V33.9761L1.8661 35.3359C-0.0198974 37.4395 8.50708e-06 37.4135 8.50708e-06 37.7776C8.50708e-06 38.4131 0.79635 38.7805 1.272 38.3642C1.38159 38.2683 2.04715 37.5396 2.75112 36.7449C4.9168 34.2997 4.67793 34.6865 4.67793 33.6247C4.67793 31.4903 5.05017 28.3583 5.52861 26.4667C5.67134 25.9026 6.22672 24.0963 6.76269 22.4529C7.29876 20.8095 7.83602 19.0296 7.95665 18.4976C8.14825 17.6532 8.21921 17.4925 8.51582 17.2319C9.12962 16.6927 10.0382 16.6065 10.7221 17.0226C11.3244 17.3892 11.5886 18.8218 11.5859 21.7059C11.5838 24.0354 11.3933 25.6009 10.982 26.6693C10.5772 27.7209 10.5775 27.9444 10.9852 28.6318C11.7205 29.8717 12.4044 31.9329 12.8017 34.1063C13.0532 35.4817 13.0576 39.5253 12.8092 40.9528C12.5908 42.2077 12.5945 42.2865 12.8847 42.5769C13.4366 43.1292 14.1555 42.7505 14.2804 41.8415L14.3511 41.3274H19.7219H25.0929L24.9131 41.6442C24.6293 42.1444 23.5994 43.1412 22.892 43.6005C21.9319 44.2238 19.938 45.1937 19.2783 45.3584C18.1512 45.6397 17.0969 45.7315 15.7751 45.6634L14.4807 45.5968L13.038 47.0495C12.2445 47.8484 11.517 48.6459 11.4215 48.8217C11.2175 49.1972 11.2694 49.4597 11.6089 49.7686C12.0956 50.2114 12.2756 50.1144 13.7319 48.6248L15.0724 47.2536L16.2202 47.2863C18.3198 47.3462 20.0436 46.9563 21.9015 46.0013C24.4669 44.6825 26.0101 43.2909 26.6322 41.7351L26.7952 41.3274H29.1185C30.4468 41.3274 31.6676 41.2797 31.9692 41.2162C33.1825 40.9605 34.1947 40.1986 34.7063 39.1559C34.9841 38.5899 34.985 38.5815 35.0161 36.236L35.0475 33.8837L35.9862 33.8345C37.5101 33.7549 38.447 33.181 39.0336 31.9679C39.5081 30.9865 39.2427 29.429 38.4738 28.6833L38.1441 28.3634L38.4791 27.8067C38.8796 27.1412 38.9573 26.785 38.8942 25.9052C38.8413 25.1668 38.6048 24.6155 38.1169 24.0928C37.8638 23.8217 37.8229 23.7232 37.913 23.6013C38.6134 22.6538 38.7681 21.3937 38.3059 20.4025C37.794 19.3047 36.9439 18.7169 35.7562 18.6392C35.0543 18.5933 35.0349 18.585 35.0406 18.3312C35.0457 18.1089 35.3407 17.8574 37.0404 16.6262C39.1119 15.1257 39.3827 14.8815 39.7331 14.1975C40.0267 13.6243 40.0888 12.5291 39.8658 11.857C39.6371 11.1682 38.8807 10.348 38.1967 10.0474C37.3935 9.69456 36.4435 9.71816 35.6517 10.1109L35.0433 10.4127L35.014 6.57226L34.9849 2.73183L34.7191 2.1645C34.4137 1.51231 33.7428 0.796671 33.1561 0.497169C32.1572 -0.0127896 32.2584 -0.00790913 22.7466 0.00274822C17.812 0.00832589 13.7135 0.0529473 13.4987 0.103445ZM13.6695 1.72824C12.7041 2.03282 12.2422 2.6626 12.2422 3.67405V4.27565H22.8422H33.4422V3.77445C33.4422 2.89955 33.0636 2.2631 32.2976 1.85065L31.8994 1.63621L22.9915 1.61689C15.8755 1.60145 14.0002 1.62386 13.6695 1.72824ZM12.2422 11.0137V16.1582L12.4963 16.6779C13.0076 17.7236 13.1765 18.9154 13.1809 21.5067C13.1851 24.0583 13.0429 25.3632 12.5906 26.9254L12.349 27.7596L12.6333 28.2935C13.3929 29.7204 14.1754 32.298 14.4357 34.2308L14.5597 35.1521H24.0009H33.4422V20.5107V5.86927H22.8422H12.2422V11.0137ZM36.513 11.4898C36.3133 11.559 35.8996 11.8354 35.5935 12.104L35.0371 12.5924L35.0359 14.3592L35.0347 16.1259L36.5398 15.0138C37.3676 14.4021 38.1288 13.7639 38.2315 13.5955C38.911 12.4804 37.752 11.0604 36.513 11.4898ZM35.0347 21.6863V23.1606L35.567 23.102C36.2416 23.0277 36.594 22.7961 36.8324 22.2708C37.0689 21.7496 37.0685 21.5618 36.8298 21.0357C36.5847 20.4953 36.1309 20.2128 35.5074 20.2123L35.0347 20.2119V21.6863ZM35.4577 24.7668L35.0347 24.805V26.2434V27.682L35.607 27.6818C36.6544 27.6816 37.3242 27.1026 37.3234 26.1981C37.323 25.5898 37.0353 25.1324 36.5006 24.8895C36.2691 24.7844 36.0349 24.7052 35.9802 24.7136C35.9254 24.7219 35.6903 24.7459 35.4577 24.7668ZM35.3084 29.3469L35.0347 29.3884V30.826V32.2636L35.607 32.263C36.3637 32.2623 36.9146 32.1033 37.2469 31.7897C37.9812 31.0966 37.7936 29.8674 36.8878 29.4372C36.5684 29.2856 35.947 29.2501 35.3084 29.3469ZM14.6113 38.165C14.5947 38.9456 14.595 39.6179 14.6119 39.659C14.6622 39.7812 31.1655 39.7503 31.7402 39.627C32.8452 39.3898 33.4361 38.6219 33.44 37.418L33.4422 36.7457H24.0418H14.6414L14.6113 38.165Z" fill="#00829B"/>
</svg>
