<svg width="155" height="155" viewBox="0 0 155 155" fill="none" xmlns="http://www.w3.org/2000/svg">
<path d="M155 77.5C155 120.302 120.302 155 77.5 155C34.6979 155 0 120.302 0 77.5C0 34.6979 34.6979 0 77.5 0C120.302 0 155 34.6979 155 77.5Z" fill="#00829B" fill-opacity="0.1"/>
<path fill-rule="evenodd" clip-rule="evenodd" d="M49.27 50.3873C48.0436 51.1943 47.9996 51.448 48 57.7156C48.0002 63.9531 48.0518 64.2627 49.2346 65.1317C49.7177 65.4866 50.1516 65.5485 52.7526 65.6341L55.7196 65.7319L55.7694 85.8434C55.8052 100.31 55.8804 106.029 56.0376 106.218C56.3513 106.596 57.2649 106.543 57.6437 106.124C57.9408 105.796 57.9672 103.946 57.9672 83.5146C57.9672 61.7415 57.9756 61.2451 58.3539 60.4635C58.5666 60.0242 59.0284 59.4906 59.38 59.278C60.0029 58.9013 60.4821 58.89 77.9511 58.8367C88.5506 58.8042 95.883 58.8542 95.883 58.9586C95.883 59.0559 95.751 59.5094 95.5898 59.9663C95.3357 60.6865 95.2966 63.8007 95.2966 83.3322C95.2966 107.94 95.229 106.482 96.3716 106.482C97.4698 106.482 97.4465 106.7 97.4465 96.3367C97.4465 91.095 97.5049 82.0425 97.5763 76.2203L97.7059 65.6341H101.847C105.827 65.6341 106.014 65.6169 106.652 65.1905C107.949 64.3239 108 64.0458 108 57.7482C108 51.479 107.942 51.1386 106.735 50.3928C106.104 50.0025 105.831 49.9988 77.9769 50.0001C50.3076 50.0013 49.8469 50.0075 49.27 50.3873ZM105.346 52.2673C105.618 52.3714 105.655 53.0467 105.655 57.8374V63.2888H97.5992L97.6742 61.8037C97.7457 60.3873 97.7819 60.2884 98.4548 59.6718C99.0634 59.1142 99.3454 59.0079 100.502 58.9002C101.24 58.8316 101.976 58.7047 102.137 58.6183C102.581 58.3801 102.633 57.2039 102.213 56.8967C101.934 56.693 97.1885 56.6438 77.8315 56.6438C55.7405 56.6438 53.7671 56.67 53.4386 56.9672C52.9941 57.3695 52.9803 57.9673 53.4046 58.4362C53.6579 58.7163 54.0181 58.7937 55.0658 58.7937C55.8017 58.7937 56.4036 58.8709 56.4036 58.9653C56.4036 59.0597 56.2717 59.4525 56.1105 59.8385C55.9441 60.2364 55.8173 61.1349 55.8173 61.9145V63.2888H50.3449V57.8491C50.3449 54.8571 50.4036 52.3505 50.4753 52.279C50.6381 52.1162 104.922 52.1046 105.346 52.2673ZM63.5943 69.7873C63.0127 70.2444 62.9828 70.863 63.5162 71.3964L64.0081 71.8883H77.5292L78.0211 71.3964C78.5545 70.863 78.5246 70.2444 77.9429 69.7873C77.4944 69.4347 64.0429 69.4347 63.5943 69.7873ZM81.5483 69.9004C81.0866 70.4105 81.14 71.2203 81.6593 71.584C82.0118 71.831 82.7317 71.8883 85.4831 71.8883C87.5079 71.8883 89.0294 71.8044 89.2618 71.6801C90.0107 71.2793 90.0631 70.1651 89.3552 69.6925C89.237 69.6135 87.5048 69.5477 85.506 69.5459C82.2311 69.5434 81.8397 69.5784 81.5483 69.9004ZM63.3092 76.8945C63.0086 77.353 63.0039 77.4588 63.2633 77.9206L63.5521 78.4356L70.7012 78.4868C78.4777 78.5425 78.342 78.5609 78.342 77.4584C78.342 76.3665 78.462 76.3835 70.7493 76.3835H63.644L63.3092 76.8945ZM81.5318 76.6905C81.363 76.8596 81.2248 77.2051 81.2248 77.4584C81.2248 78.4589 81.5285 78.5333 85.6123 78.5333C89.6972 78.5333 89.8731 78.489 89.8731 77.4584C89.8731 76.4278 89.6972 76.3835 85.6123 76.3835C82.4426 76.3835 81.7898 76.4325 81.5318 76.6905ZM63.5285 83.5083C62.9465 84.0901 62.9238 84.4671 63.4396 84.9829C63.8156 85.3589 64.091 85.3738 70.7313 85.3738C78.0381 85.3738 78.1112 85.365 78.3833 84.4488C78.4779 84.1304 78.3797 83.8791 78.0211 83.5204L77.5292 83.0285H64.0081L63.5285 83.5083ZM81.8111 83.2736C81.2004 83.5892 81.0581 84.4748 81.5336 85.0001C81.8436 85.3425 82.1762 85.3738 85.5175 85.3738C89.501 85.3738 89.8731 85.2833 89.8731 84.3151C89.8731 83.2251 89.5626 83.1313 85.7624 83.0736C83.2265 83.0351 82.169 83.0887 81.8111 83.2736ZM59.5958 104.843C59.2954 105.301 59.2907 105.407 59.5493 105.869C59.8284 106.367 59.9044 106.386 61.8598 106.44C63.5377 106.486 63.9438 106.44 64.2469 106.165C64.6919 105.763 64.7103 105.341 64.3079 104.766C64.0267 104.365 63.8502 104.332 61.9671 104.332C59.9865 104.332 59.9214 104.346 59.5958 104.843ZM66.9569 104.625C66.8229 104.787 66.7132 105.138 66.7132 105.407C66.7132 106.343 67.0328 106.482 69.1987 106.482C70.8861 106.482 71.2469 106.426 71.5201 106.124C71.9444 105.655 71.9305 105.057 71.4861 104.655C70.9895 104.206 67.3253 104.182 66.9569 104.625ZM74.3355 104.543C73.9063 104.793 73.8856 105.759 74.3005 106.175C74.5381 106.412 75.0434 106.482 76.5342 106.482C78.628 106.482 79.0749 106.292 79.0749 105.407C79.0749 104.522 78.6266 104.331 76.5692 104.338C75.5286 104.341 74.5237 104.433 74.3355 104.543ZM81.5318 104.639C81.12 105.051 81.1435 105.761 81.5823 106.158C82.0453 106.577 85.4473 106.626 86.0002 106.222C86.4085 105.923 86.4689 105.056 86.1114 104.625C85.7516 104.192 81.9677 104.203 81.5318 104.639ZM88.7167 104.843C88.4161 105.301 88.4114 105.407 88.6708 105.869C88.9555 106.376 88.9917 106.384 91.0946 106.384C93.1976 106.384 93.2337 106.376 93.5185 105.869C93.7779 105.407 93.7732 105.301 93.4726 104.843C93.1468 104.346 93.0823 104.332 91.0946 104.332C89.107 104.332 89.0425 104.346 88.7167 104.843Z" fill="#00829B"/>
</svg>
