<svg width="204" height="100" viewBox="0 0 204 100" fill="none" xmlns="http://www.w3.org/2000/svg">
<path d="M202.903 50H1.09668V100H202.903V50Z" fill="#E2E42B"/>
<path d="M202.903 0H1.09668V50H202.903V0Z" fill="#00503C"/>
<path d="M27.3719 69.6617H28.6302L30.9944 75.2807L33.468 69.6617H34.7263L36.223 78.5024H34.458L33.6567 73.0541L31.2627 78.5024H30.6766L28.3918 73.0541L27.4812 78.5024H25.7163L27.3719 69.6617Z" fill="black"/>
<path d="M39.802 69.6617V78.5024H38.0636V69.6617H39.802Z" fill="black"/>
<path d="M43.8388 69.6614V75.5465L48.7296 69.6614H49.9581V78.5021H48.2197V72.5908L43.3288 78.5021H42.1004V69.6614H43.8388ZM44.8289 66.8371C45.1103 67.5793 45.8587 67.6056 46.0342 67.6056C46.2063 67.6056 46.9548 67.5793 47.2362 66.8371L48.4382 67.3133C48.0905 68.2132 47.2626 68.7977 46.0342 68.7977C44.8058 68.7977 43.9746 68.2132 43.627 67.3133L44.8289 66.8371Z" fill="black"/>
<path d="M55.6408 69.6617H60.7998V71.146H57.3793V73.1756H58.5812C59.2502 73.1756 60.1177 73.2807 60.8131 73.8915C61.323 74.3414 61.6541 75.018 61.6541 75.8521C61.6541 76.4498 61.4687 76.9917 61.1608 77.4285C60.4787 78.3842 59.3694 78.5024 58.5945 78.5024H55.6408V69.6617ZM57.3793 77.018H58.2104C59.6011 77.018 59.866 76.3677 59.866 75.8653C59.866 75.3069 59.558 74.66 58.2336 74.66H57.3793V77.018Z" fill="black"/>
<path d="M68.5252 76.6469H64.9291L64.141 78.5024H62.2569L66.0946 69.6617H67.4589L71.1874 78.5024H69.3165L68.5252 76.6469ZM68.0184 75.2413L66.7502 72.059L65.4788 75.2413H68.0184Z" fill="black"/>
<path d="M74.2336 73.0804H78.0018V69.6585H79.7403V78.4991H78.0018V74.5615H74.2336V78.4991H72.4951V69.6585H74.2336V73.0804Z" fill="black"/>
<path d="M83.7768 73.3989L87.0517 69.6617H89.2438L85.4756 73.7437L89.4458 78.5024H87.1477L83.9788 74.5385L83.7768 74.7388V78.5024H82.0384V69.6617H83.7768V73.3989Z" fill="black"/>
<path d="M91.4754 76.6076C92.0648 76.6076 92.5185 77.0575 92.5185 77.6421C92.5185 78.2266 92.0648 78.6765 91.4754 78.6765C90.886 78.6765 90.4323 78.2266 90.4323 77.6421C90.4323 77.0575 90.886 76.6076 91.4754 76.6076Z" fill="black"/>
<path d="M99.0244 69.6617H100.279L102.644 75.2807L105.117 69.6617H106.375L107.872 78.5024H106.107L105.306 73.0541L102.912 78.5024H102.326L100.041 73.0541L99.1303 78.5024H97.3654L99.0244 69.6617Z" fill="black"/>
<path d="M118.806 74.0888C118.806 76.7785 116.856 78.7029 114.048 78.7029C111.24 78.7029 109.29 76.7816 109.29 74.0888C109.29 71.3958 111.24 69.4615 114.048 69.4615C116.856 69.4615 118.806 71.3958 118.806 74.0888ZM117.015 74.0888C117.015 72.2989 115.786 71.0247 114.048 71.0247C112.31 71.0247 111.081 72.2989 111.081 74.0888C111.081 75.8786 112.31 77.1364 114.048 77.1364C115.786 77.1364 117.015 75.8786 117.015 74.0888Z" fill="black"/>
<path d="M126.241 78.5024H124.502V75.0804H124.181L121.91 78.5024H119.824L122.469 74.9228C122.134 74.8702 121.774 74.7224 121.493 74.5254C120.96 74.1412 120.489 73.4121 120.489 72.3908C120.489 71.422 120.903 70.7455 121.373 70.3349C122.069 69.7241 122.91 69.6585 123.658 69.6585H126.238V78.5024H126.241ZM123.966 71.0673C123.645 71.0673 122.284 71.0804 122.284 72.3941C122.284 73.734 123.648 73.734 123.996 73.734H124.506V71.0706H123.966V71.0673Z" fill="black"/>
<path d="M133.654 73.3989L136.929 69.6617H139.121L135.353 73.7437L139.323 78.5024H137.025L133.857 74.5385L133.654 74.7388V78.5024H131.916V69.6617H133.654V73.3989Z" fill="black"/>
<path d="M143.28 69.6617C144.283 69.6617 144.978 69.7667 145.631 70.3381C146.352 70.9753 146.538 71.8357 146.538 72.4729C146.538 72.8176 146.485 73.7733 145.803 74.4466C145.309 74.9358 144.574 75.2281 143.545 75.2281H142.423V78.5024H140.684V69.6617H143.28ZM142.423 73.7437H143.131C143.466 73.7437 143.892 73.7437 144.266 73.4646C144.588 73.2118 144.747 72.8144 144.747 72.4301C144.747 71.9408 144.505 71.6091 144.253 71.4219C143.892 71.169 143.438 71.1427 143.021 71.1427H142.423V73.7437Z" fill="black"/>
<path d="M152.797 76.6469H149.201L148.412 78.5024H146.529L150.367 69.6617H151.731L155.459 78.5024H153.588L152.797 76.6469ZM152.287 75.2413L151.016 72.059L149.747 75.2413H152.287Z" fill="black"/>
<path d="M156.605 66.7979C157.032 66.7979 157.379 67.2479 157.379 67.7536C157.379 68.2593 157.032 68.7092 156.605 68.7092C156.177 68.7092 155.83 68.2593 155.83 67.7536C155.83 67.2479 156.177 66.7979 156.605 66.7979ZM158.501 69.6617V78.5024H156.763V69.6617H158.501ZM158.611 66.7979C159.039 66.7979 159.386 67.2479 159.386 67.7536C159.386 68.2593 159.039 68.7092 158.611 68.7092C158.184 68.7092 157.837 68.2593 157.837 67.7536C157.837 67.2479 158.181 66.7979 158.611 66.7979Z" fill="black"/>
<path d="M162.539 73.0804H166.31V69.6585H168.049V78.4991H166.31V74.5615H162.539V78.4991H160.803V69.6585H162.539V73.0804Z" fill="black"/>
<path d="M175.624 76.6469H172.029L171.24 78.5024H169.356L173.194 69.6617H174.555L178.284 78.5024H176.413L175.624 76.6469ZM175.114 75.2413L173.846 72.059L172.575 75.2413H175.114Z" fill="black"/>
<path d="M33.9615 16.2201C28.3256 16.2201 25.5674 20.1412 25.5674 24.9754C25.5674 29.8096 28.3256 33.7308 33.9615 33.7308C39.5973 33.7308 42.3556 29.8096 42.3556 24.9754C42.3556 20.1412 39.5973 16.2201 33.9615 16.2201ZM33.9615 32.762C30.6039 32.762 29.1602 29.1658 29.1602 24.9787C29.1602 20.7915 30.5509 17.2381 33.9085 17.2381C37.2662 17.2381 38.7662 20.7915 38.7662 24.9787C38.7662 29.1658 37.3225 32.762 33.9615 32.762Z" fill="white"/>
<path d="M66.7527 32.1545V16.6504L63.4612 16.6569L63.4447 32.1545H58.4513V16.6569H55.1366L55.1333 32.138H50.0538V18.8146C50.0538 17.7276 49.1564 16.6569 48.0505 16.6569H45.2558V17.3762C45.9942 17.3762 46.7326 18.0954 46.7326 18.8179V33.3302H66.8255V37.6159H68.3024L69.1931 32.1545H66.7527Z" fill="white"/>
<path d="M86.7002 31.9047C85.5678 30.348 80.336 16.6666 80.336 16.6666L80.3393 16.66H78.7068L70.9882 33.33H72.8028L74.7266 29.0804H81.8161L83.1572 32.0131C83.5346 32.8144 84.0678 33.3399 85.4155 33.3399H87.4188V32.4466C87.2831 32.4466 86.899 32.1772 86.7002 31.9047ZM75.2564 27.9047L78.5909 20.1609L81.3393 27.9047H75.2564Z" fill="white"/>
<path d="M140.108 31.9047C138.975 30.348 133.744 16.6666 133.744 16.6666L133.747 16.66H132.114L124.396 33.33H126.21L128.135 29.0804H135.223L136.565 32.0131C136.942 32.8144 137.475 33.3399 138.823 33.3399H140.827V32.4466C140.694 32.4466 140.307 32.1772 140.108 31.9047ZM128.665 27.9047L131.999 20.1609L134.747 27.9047H128.665Z" fill="white"/>
<path d="M106.184 32.2691C105.674 32.2691 104.949 31.5795 104.495 30.6501C102.843 27.2577 98.8427 16.66 98.8427 16.66H98.8394L97.197 16.6369L90.0315 32.1575H89.0314L89.9089 37.6189H91.3858V33.3332H103.823V37.6189H105.3L106.184 32.2691ZM97.1142 20.3249L97.1673 20.3218L100.906 30.5253C101.313 31.4909 101.81 32.0196 102.462 32.2691H91.8361L97.1142 20.3249Z" fill="white"/>
<path d="M115.95 24.4368H112.33V17.8326H118.972L118.976 22.0756H120.347L121.383 16.6602L107.529 16.6536V17.3859C108.267 17.3859 109.006 18.1052 109.006 18.8277V33.3367L115.95 33.3301C120.724 33.3301 121.89 30.8079 121.89 28.7291C121.89 26.5025 120.724 24.4368 115.95 24.4368ZM115.294 32.2431H112.33V25.6125H115.324C117.89 25.6125 118.612 27.2021 118.612 28.647C118.612 29.9869 117.857 32.2431 115.294 32.2431Z" fill="white"/>
<path d="M154.452 16.6568V24.4368H147.992V18.8309C147.992 17.7438 146.873 16.6568 145.767 16.6568H143.052V17.376C143.79 17.376 144.528 18.0953 144.528 18.8177V33.33H147.992V25.6125H154.452V33.33H157.843V16.6568H154.452Z" fill="white"/>
<path d="M176.281 31.0545C174.685 29.4256 170.271 24.5422 170.271 24.5422V24.4108L177.172 16.6473L174.986 16.644L168.068 24.4075H166.95V18.8311C166.95 17.7441 165.831 16.6571 164.724 16.6571H162.241V17.3763C163.012 17.3763 163.718 18.0955 163.718 18.818C163.718 22.4469 163.718 33.3303 163.718 33.3303H166.95V25.7113H167.907C168.685 26.6965 172.827 31.7769 172.827 31.7769C174.095 33.2285 175.582 33.5733 177.089 33.5733H178.426L178.436 32.6374C178.039 32.6374 177.218 32.0101 176.281 31.0545Z" fill="white"/>
</svg>
